<mxfile host="Electron" modified="2023-09-13T07:22:52.999Z" agent="Mozilla/5.0 (Windows NT 10.0; Win64; x64) AppleWebKit/537.36 (KHTML, like Gecko) draw.io/21.1.2 Chrome/106.0.5249.199 Electron/21.4.3 Safari/537.36" etag="uA3X7DeRfCVKyXYfLmyG" version="21.1.2" type="device">
  <diagram id="C5RBs43oDa-KdzZeNtuy" name="Page-1">
    <mxGraphModel dx="4127" dy="1473" grid="1" gridSize="10" guides="1" tooltips="1" connect="1" arrows="1" fold="1" page="1" pageScale="1" pageWidth="827" pageHeight="1169" math="0" shadow="0">
      <root>
        <mxCell id="WIyWlLk6GJQsqaUBKTNV-0" />
        <mxCell id="WIyWlLk6GJQsqaUBKTNV-1" parent="WIyWlLk6GJQsqaUBKTNV-0" />
        <mxCell id="9JEVUWr5euu2L4IEynwz-0" value="Wine" style="swimlane;fontStyle=0;childLayout=stackLayout;horizontal=1;startSize=26;fillColor=none;horizontalStack=0;resizeParent=1;resizeParentMax=0;resizeLast=0;collapsible=1;marginBottom=0;whiteSpace=wrap;html=1;" vertex="1" parent="WIyWlLk6GJQsqaUBKTNV-1">
          <mxGeometry x="210" y="353" width="140" height="130" as="geometry" />
        </mxCell>
        <mxCell id="9JEVUWr5euu2L4IEynwz-1" value="+ Name" style="text;strokeColor=none;fillColor=none;align=left;verticalAlign=top;spacingLeft=4;spacingRight=4;overflow=hidden;rotatable=0;points=[[0,0.5],[1,0.5]];portConstraint=eastwest;whiteSpace=wrap;html=1;" vertex="1" parent="9JEVUWr5euu2L4IEynwz-0">
          <mxGeometry y="26" width="140" height="26" as="geometry" />
        </mxCell>
        <mxCell id="9JEVUWr5euu2L4IEynwz-4" value="+ Type" style="text;strokeColor=none;fillColor=none;align=left;verticalAlign=top;spacingLeft=4;spacingRight=4;overflow=hidden;rotatable=0;points=[[0,0.5],[1,0.5]];portConstraint=eastwest;whiteSpace=wrap;html=1;" vertex="1" parent="9JEVUWr5euu2L4IEynwz-0">
          <mxGeometry y="52" width="140" height="26" as="geometry" />
        </mxCell>
        <mxCell id="9JEVUWr5euu2L4IEynwz-5" value="+ Region" style="text;strokeColor=none;fillColor=none;align=left;verticalAlign=top;spacingLeft=4;spacingRight=4;overflow=hidden;rotatable=0;points=[[0,0.5],[1,0.5]];portConstraint=eastwest;whiteSpace=wrap;html=1;" vertex="1" parent="9JEVUWr5euu2L4IEynwz-0">
          <mxGeometry y="78" width="140" height="26" as="geometry" />
        </mxCell>
        <mxCell id="9JEVUWr5euu2L4IEynwz-6" value="+ Description" style="text;strokeColor=none;fillColor=none;align=left;verticalAlign=top;spacingLeft=4;spacingRight=4;overflow=hidden;rotatable=0;points=[[0,0.5],[1,0.5]];portConstraint=eastwest;whiteSpace=wrap;html=1;" vertex="1" parent="9JEVUWr5euu2L4IEynwz-0">
          <mxGeometry y="104" width="140" height="26" as="geometry" />
        </mxCell>
        <mxCell id="9JEVUWr5euu2L4IEynwz-7" value="Winery" style="swimlane;fontStyle=0;childLayout=stackLayout;horizontal=1;startSize=26;fillColor=none;horizontalStack=0;resizeParent=1;resizeParentMax=0;resizeLast=0;collapsible=1;marginBottom=0;whiteSpace=wrap;html=1;" vertex="1" parent="WIyWlLk6GJQsqaUBKTNV-1">
          <mxGeometry x="-115" y="450" width="200" height="80" as="geometry" />
        </mxCell>
        <mxCell id="9JEVUWr5euu2L4IEynwz-8" value="+ Name" style="text;strokeColor=none;fillColor=none;align=left;verticalAlign=top;spacingLeft=4;spacingRight=4;overflow=hidden;rotatable=0;points=[[0,0.5],[1,0.5]];portConstraint=eastwest;whiteSpace=wrap;html=1;" vertex="1" parent="9JEVUWr5euu2L4IEynwz-7">
          <mxGeometry y="26" width="200" height="26" as="geometry" />
        </mxCell>
        <mxCell id="9JEVUWr5euu2L4IEynwz-9" value="+ Information" style="text;strokeColor=none;fillColor=none;align=left;verticalAlign=top;spacingLeft=4;spacingRight=4;overflow=hidden;rotatable=0;points=[[0,0.5],[1,0.5]];portConstraint=eastwest;whiteSpace=wrap;html=1;" vertex="1" parent="9JEVUWr5euu2L4IEynwz-7">
          <mxGeometry y="52" width="200" height="28" as="geometry" />
        </mxCell>
        <mxCell id="9JEVUWr5euu2L4IEynwz-11" value="WinaryInformation" style="swimlane;fontStyle=0;childLayout=stackLayout;horizontal=1;startSize=26;fillColor=none;horizontalStack=0;resizeParent=1;resizeParentMax=0;resizeLast=0;collapsible=1;marginBottom=0;whiteSpace=wrap;html=1;" vertex="1" parent="WIyWlLk6GJQsqaUBKTNV-1">
          <mxGeometry x="-115" y="540" width="140" height="78" as="geometry" />
        </mxCell>
        <mxCell id="9JEVUWr5euu2L4IEynwz-13" value="+ Location" style="text;strokeColor=none;fillColor=none;align=left;verticalAlign=top;spacingLeft=4;spacingRight=4;overflow=hidden;rotatable=0;points=[[0,0.5],[1,0.5]];portConstraint=eastwest;whiteSpace=wrap;html=1;" vertex="1" parent="9JEVUWr5euu2L4IEynwz-11">
          <mxGeometry y="26" width="140" height="26" as="geometry" />
        </mxCell>
        <mxCell id="9JEVUWr5euu2L4IEynwz-14" value="+ PhoneNumber" style="text;strokeColor=none;fillColor=none;align=left;verticalAlign=top;spacingLeft=4;spacingRight=4;overflow=hidden;rotatable=0;points=[[0,0.5],[1,0.5]];portConstraint=eastwest;whiteSpace=wrap;html=1;" vertex="1" parent="9JEVUWr5euu2L4IEynwz-11">
          <mxGeometry y="52" width="140" height="26" as="geometry" />
        </mxCell>
        <mxCell id="9JEVUWr5euu2L4IEynwz-15" value="&lt;p style=&quot;border-color: var(--border-color); text-align: left;&quot; class=&quot;MsoNormal&quot;&gt;User&lt;/p&gt;" style="swimlane;fontStyle=0;childLayout=stackLayout;horizontal=1;startSize=26;fillColor=none;horizontalStack=0;resizeParent=1;resizeParentMax=0;resizeLast=0;collapsible=1;marginBottom=0;whiteSpace=wrap;html=1;" vertex="1" parent="WIyWlLk6GJQsqaUBKTNV-1">
          <mxGeometry x="-160" y="740" width="170" height="208" as="geometry" />
        </mxCell>
        <mxCell id="9JEVUWr5euu2L4IEynwz-16" value="+ Username" style="text;strokeColor=none;fillColor=none;align=left;verticalAlign=top;spacingLeft=4;spacingRight=4;overflow=hidden;rotatable=0;points=[[0,0.5],[1,0.5]];portConstraint=eastwest;whiteSpace=wrap;html=1;" vertex="1" parent="9JEVUWr5euu2L4IEynwz-15">
          <mxGeometry y="26" width="170" height="26" as="geometry" />
        </mxCell>
        <mxCell id="9JEVUWr5euu2L4IEynwz-17" value="+ Email" style="text;strokeColor=none;fillColor=none;align=left;verticalAlign=top;spacingLeft=4;spacingRight=4;overflow=hidden;rotatable=0;points=[[0,0.5],[1,0.5]];portConstraint=eastwest;whiteSpace=wrap;html=1;" vertex="1" parent="9JEVUWr5euu2L4IEynwz-15">
          <mxGeometry y="52" width="170" height="26" as="geometry" />
        </mxCell>
        <mxCell id="9JEVUWr5euu2L4IEynwz-18" value="+ Password" style="text;strokeColor=none;fillColor=none;align=left;verticalAlign=top;spacingLeft=4;spacingRight=4;overflow=hidden;rotatable=0;points=[[0,0.5],[1,0.5]];portConstraint=eastwest;whiteSpace=wrap;html=1;" vertex="1" parent="9JEVUWr5euu2L4IEynwz-15">
          <mxGeometry y="78" width="170" height="26" as="geometry" />
        </mxCell>
        <mxCell id="9JEVUWr5euu2L4IEynwz-19" value="+ ProfilePicture" style="text;strokeColor=none;fillColor=none;align=left;verticalAlign=top;spacingLeft=4;spacingRight=4;overflow=hidden;rotatable=0;points=[[0,0.5],[1,0.5]];portConstraint=eastwest;whiteSpace=wrap;html=1;" vertex="1" parent="9JEVUWr5euu2L4IEynwz-15">
          <mxGeometry y="104" width="170" height="26" as="geometry" />
        </mxCell>
        <mxCell id="9JEVUWr5euu2L4IEynwz-20" value="+ Role" style="text;strokeColor=none;fillColor=none;align=left;verticalAlign=top;spacingLeft=4;spacingRight=4;overflow=hidden;rotatable=0;points=[[0,0.5],[1,0.5]];portConstraint=eastwest;whiteSpace=wrap;html=1;" vertex="1" parent="9JEVUWr5euu2L4IEynwz-15">
          <mxGeometry y="130" width="170" height="26" as="geometry" />
        </mxCell>
        <mxCell id="9JEVUWr5euu2L4IEynwz-126" value="+ FirstName" style="text;strokeColor=none;fillColor=none;align=left;verticalAlign=top;spacingLeft=4;spacingRight=4;overflow=hidden;rotatable=0;points=[[0,0.5],[1,0.5]];portConstraint=eastwest;whiteSpace=wrap;html=1;" vertex="1" parent="9JEVUWr5euu2L4IEynwz-15">
          <mxGeometry y="156" width="170" height="26" as="geometry" />
        </mxCell>
        <mxCell id="9JEVUWr5euu2L4IEynwz-127" value="+ LastName" style="text;strokeColor=none;fillColor=none;align=left;verticalAlign=top;spacingLeft=4;spacingRight=4;overflow=hidden;rotatable=0;points=[[0,0.5],[1,0.5]];portConstraint=eastwest;whiteSpace=wrap;html=1;" vertex="1" parent="9JEVUWr5euu2L4IEynwz-15">
          <mxGeometry y="182" width="170" height="26" as="geometry" />
        </mxCell>
        <mxCell id="9JEVUWr5euu2L4IEynwz-21" value="WineRating" style="swimlane;fontStyle=0;childLayout=stackLayout;horizontal=1;startSize=26;fillColor=none;horizontalStack=0;resizeParent=1;resizeParentMax=0;resizeLast=0;collapsible=1;marginBottom=0;whiteSpace=wrap;html=1;" vertex="1" parent="WIyWlLk6GJQsqaUBKTNV-1">
          <mxGeometry x="190" y="890" width="180" height="52" as="geometry" />
        </mxCell>
        <mxCell id="9JEVUWr5euu2L4IEynwz-24" value="+ Rating" style="text;strokeColor=none;fillColor=none;align=left;verticalAlign=top;spacingLeft=4;spacingRight=4;overflow=hidden;rotatable=0;points=[[0,0.5],[1,0.5]];portConstraint=eastwest;whiteSpace=wrap;html=1;" vertex="1" parent="9JEVUWr5euu2L4IEynwz-21">
          <mxGeometry y="26" width="180" height="26" as="geometry" />
        </mxCell>
        <mxCell id="9JEVUWr5euu2L4IEynwz-25" value="TastingNote" style="swimlane;fontStyle=0;childLayout=stackLayout;horizontal=1;startSize=26;fillColor=none;horizontalStack=0;resizeParent=1;resizeParentMax=0;resizeLast=0;collapsible=1;marginBottom=0;whiteSpace=wrap;html=1;" vertex="1" parent="WIyWlLk6GJQsqaUBKTNV-1">
          <mxGeometry x="180" y="790" width="180" height="78" as="geometry" />
        </mxCell>
        <mxCell id="9JEVUWr5euu2L4IEynwz-27" value="+ Date" style="text;strokeColor=none;fillColor=none;align=left;verticalAlign=top;spacingLeft=4;spacingRight=4;overflow=hidden;rotatable=0;points=[[0,0.5],[1,0.5]];portConstraint=eastwest;whiteSpace=wrap;html=1;" vertex="1" parent="9JEVUWr5euu2L4IEynwz-25">
          <mxGeometry y="26" width="180" height="26" as="geometry" />
        </mxCell>
        <mxCell id="9JEVUWr5euu2L4IEynwz-28" value="+ Note" style="text;strokeColor=none;fillColor=none;align=left;verticalAlign=top;spacingLeft=4;spacingRight=4;overflow=hidden;rotatable=0;points=[[0,0.5],[1,0.5]];portConstraint=eastwest;whiteSpace=wrap;html=1;" vertex="1" parent="9JEVUWr5euu2L4IEynwz-25">
          <mxGeometry y="52" width="180" height="26" as="geometry" />
        </mxCell>
        <mxCell id="9JEVUWr5euu2L4IEynwz-30" value="Collection" style="swimlane;fontStyle=0;childLayout=stackLayout;horizontal=1;startSize=26;fillColor=none;horizontalStack=0;resizeParent=1;resizeParentMax=0;resizeLast=0;collapsible=1;marginBottom=0;whiteSpace=wrap;html=1;" vertex="1" parent="WIyWlLk6GJQsqaUBKTNV-1">
          <mxGeometry x="180" y="550" width="170" height="78" as="geometry" />
        </mxCell>
        <mxCell id="9JEVUWr5euu2L4IEynwz-32" value="+ Date" style="text;strokeColor=none;fillColor=none;align=left;verticalAlign=top;spacingLeft=4;spacingRight=4;overflow=hidden;rotatable=0;points=[[0,0.5],[1,0.5]];portConstraint=eastwest;whiteSpace=wrap;html=1;" vertex="1" parent="9JEVUWr5euu2L4IEynwz-30">
          <mxGeometry y="26" width="170" height="26" as="geometry" />
        </mxCell>
        <mxCell id="9JEVUWr5euu2L4IEynwz-33" value="+ Note" style="text;strokeColor=none;fillColor=none;align=left;verticalAlign=top;spacingLeft=4;spacingRight=4;overflow=hidden;rotatable=0;points=[[0,0.5],[1,0.5]];portConstraint=eastwest;whiteSpace=wrap;html=1;" vertex="1" parent="9JEVUWr5euu2L4IEynwz-30">
          <mxGeometry y="52" width="170" height="26" as="geometry" />
        </mxCell>
        <mxCell id="9JEVUWr5euu2L4IEynwz-35" value="Vintage" style="swimlane;fontStyle=0;childLayout=stackLayout;horizontal=1;startSize=26;fillColor=none;horizontalStack=0;resizeParent=1;resizeParentMax=0;resizeLast=0;collapsible=1;marginBottom=0;whiteSpace=wrap;html=1;" vertex="1" parent="WIyWlLk6GJQsqaUBKTNV-1">
          <mxGeometry x="-120" y="301" width="160" height="52" as="geometry" />
        </mxCell>
        <mxCell id="9JEVUWr5euu2L4IEynwz-36" value="+ Year" style="text;strokeColor=none;fillColor=none;align=left;verticalAlign=top;spacingLeft=4;spacingRight=4;overflow=hidden;rotatable=0;points=[[0,0.5],[1,0.5]];portConstraint=eastwest;whiteSpace=wrap;html=1;" vertex="1" parent="9JEVUWr5euu2L4IEynwz-35">
          <mxGeometry y="26" width="160" height="26" as="geometry" />
        </mxCell>
        <mxCell id="9JEVUWr5euu2L4IEynwz-38" value="FoodPairing" style="swimlane;fontStyle=0;childLayout=stackLayout;horizontal=1;startSize=26;fillColor=none;horizontalStack=0;resizeParent=1;resizeParentMax=0;resizeLast=0;collapsible=1;marginBottom=0;whiteSpace=wrap;html=1;" vertex="1" parent="WIyWlLk6GJQsqaUBKTNV-1">
          <mxGeometry x="-55" y="200" width="140" height="50" as="geometry" />
        </mxCell>
        <mxCell id="9JEVUWr5euu2L4IEynwz-39" value="+ Descripiton" style="text;strokeColor=none;fillColor=none;align=left;verticalAlign=top;spacingLeft=4;spacingRight=4;overflow=hidden;rotatable=0;points=[[0,0.5],[1,0.5]];portConstraint=eastwest;whiteSpace=wrap;html=1;" vertex="1" parent="9JEVUWr5euu2L4IEynwz-38">
          <mxGeometry y="26" width="140" height="24" as="geometry" />
        </mxCell>
        <mxCell id="9JEVUWr5euu2L4IEynwz-42" value="Food" style="swimlane;fontStyle=0;childLayout=stackLayout;horizontal=1;startSize=26;fillColor=none;horizontalStack=0;resizeParent=1;resizeParentMax=0;resizeLast=0;collapsible=1;marginBottom=0;whiteSpace=wrap;html=1;" vertex="1" parent="WIyWlLk6GJQsqaUBKTNV-1">
          <mxGeometry x="-55" y="80" width="140" height="76" as="geometry" />
        </mxCell>
        <mxCell id="9JEVUWr5euu2L4IEynwz-43" value="+ Name" style="text;strokeColor=none;fillColor=none;align=left;verticalAlign=top;spacingLeft=4;spacingRight=4;overflow=hidden;rotatable=0;points=[[0,0.5],[1,0.5]];portConstraint=eastwest;whiteSpace=wrap;html=1;" vertex="1" parent="9JEVUWr5euu2L4IEynwz-42">
          <mxGeometry y="26" width="140" height="26" as="geometry" />
        </mxCell>
        <mxCell id="9JEVUWr5euu2L4IEynwz-44" value="+ Descripiton" style="text;strokeColor=none;fillColor=none;align=left;verticalAlign=top;spacingLeft=4;spacingRight=4;overflow=hidden;rotatable=0;points=[[0,0.5],[1,0.5]];portConstraint=eastwest;whiteSpace=wrap;html=1;" vertex="1" parent="9JEVUWr5euu2L4IEynwz-42">
          <mxGeometry y="52" width="140" height="24" as="geometry" />
        </mxCell>
        <mxCell id="9JEVUWr5euu2L4IEynwz-45" value="WineEvent" style="swimlane;fontStyle=0;childLayout=stackLayout;horizontal=1;startSize=26;fillColor=none;horizontalStack=0;resizeParent=1;resizeParentMax=0;resizeLast=0;collapsible=1;marginBottom=0;whiteSpace=wrap;html=1;" vertex="1" parent="WIyWlLk6GJQsqaUBKTNV-1">
          <mxGeometry x="-410" y="380" width="140" height="76" as="geometry" />
        </mxCell>
        <mxCell id="9JEVUWr5euu2L4IEynwz-46" value="+ Name" style="text;strokeColor=none;fillColor=none;align=left;verticalAlign=top;spacingLeft=4;spacingRight=4;overflow=hidden;rotatable=0;points=[[0,0.5],[1,0.5]];portConstraint=eastwest;whiteSpace=wrap;html=1;" vertex="1" parent="9JEVUWr5euu2L4IEynwz-45">
          <mxGeometry y="26" width="140" height="26" as="geometry" />
        </mxCell>
        <mxCell id="9JEVUWr5euu2L4IEynwz-47" value="+ Date" style="text;strokeColor=none;fillColor=none;align=left;verticalAlign=top;spacingLeft=4;spacingRight=4;overflow=hidden;rotatable=0;points=[[0,0.5],[1,0.5]];portConstraint=eastwest;whiteSpace=wrap;html=1;" vertex="1" parent="9JEVUWr5euu2L4IEynwz-45">
          <mxGeometry y="52" width="140" height="24" as="geometry" />
        </mxCell>
        <mxCell id="9JEVUWr5euu2L4IEynwz-51" value="Location" style="swimlane;fontStyle=0;childLayout=stackLayout;horizontal=1;startSize=26;fillColor=none;horizontalStack=0;resizeParent=1;resizeParentMax=0;resizeLast=0;collapsible=1;marginBottom=0;whiteSpace=wrap;html=1;" vertex="1" parent="WIyWlLk6GJQsqaUBKTNV-1">
          <mxGeometry x="-690" y="460" width="140" height="100" as="geometry" />
        </mxCell>
        <mxCell id="9JEVUWr5euu2L4IEynwz-52" value="+ Longitude" style="text;strokeColor=none;fillColor=none;align=left;verticalAlign=top;spacingLeft=4;spacingRight=4;overflow=hidden;rotatable=0;points=[[0,0.5],[1,0.5]];portConstraint=eastwest;whiteSpace=wrap;html=1;" vertex="1" parent="9JEVUWr5euu2L4IEynwz-51">
          <mxGeometry y="26" width="140" height="26" as="geometry" />
        </mxCell>
        <mxCell id="9JEVUWr5euu2L4IEynwz-53" value="+ Latitude" style="text;strokeColor=none;fillColor=none;align=left;verticalAlign=top;spacingLeft=4;spacingRight=4;overflow=hidden;rotatable=0;points=[[0,0.5],[1,0.5]];portConstraint=eastwest;whiteSpace=wrap;html=1;" vertex="1" parent="9JEVUWr5euu2L4IEynwz-51">
          <mxGeometry y="52" width="140" height="24" as="geometry" />
        </mxCell>
        <mxCell id="9JEVUWr5euu2L4IEynwz-54" value="+ Description" style="text;strokeColor=none;fillColor=none;align=left;verticalAlign=top;spacingLeft=4;spacingRight=4;overflow=hidden;rotatable=0;points=[[0,0.5],[1,0.5]];portConstraint=eastwest;whiteSpace=wrap;html=1;" vertex="1" parent="9JEVUWr5euu2L4IEynwz-51">
          <mxGeometry y="76" width="140" height="24" as="geometry" />
        </mxCell>
        <mxCell id="9JEVUWr5euu2L4IEynwz-55" value="WineRecomendation" style="swimlane;fontStyle=0;childLayout=stackLayout;horizontal=1;startSize=26;fillColor=none;horizontalStack=0;resizeParent=1;resizeParentMax=0;resizeLast=0;collapsible=1;marginBottom=0;whiteSpace=wrap;html=1;" vertex="1" parent="WIyWlLk6GJQsqaUBKTNV-1">
          <mxGeometry x="150" y="660" width="230" height="52" as="geometry" />
        </mxCell>
        <mxCell id="9JEVUWr5euu2L4IEynwz-56" value="+ Description" style="text;strokeColor=none;fillColor=none;align=left;verticalAlign=top;spacingLeft=4;spacingRight=4;overflow=hidden;rotatable=0;points=[[0,0.5],[1,0.5]];portConstraint=eastwest;whiteSpace=wrap;html=1;" vertex="1" parent="9JEVUWr5euu2L4IEynwz-55">
          <mxGeometry y="26" width="230" height="26" as="geometry" />
        </mxCell>
        <mxCell id="9JEVUWr5euu2L4IEynwz-59" value="WineType" style="swimlane;fontStyle=0;childLayout=stackLayout;horizontal=1;startSize=26;fillColor=none;horizontalStack=0;resizeParent=1;resizeParentMax=0;resizeLast=0;collapsible=1;marginBottom=0;whiteSpace=wrap;html=1;" vertex="1" parent="WIyWlLk6GJQsqaUBKTNV-1">
          <mxGeometry x="544" y="250" width="140" height="130" as="geometry" />
        </mxCell>
        <mxCell id="9JEVUWr5euu2L4IEynwz-60" value="+ Description" style="text;strokeColor=none;fillColor=none;align=left;verticalAlign=top;spacingLeft=4;spacingRight=4;overflow=hidden;rotatable=0;points=[[0,0.5],[1,0.5]];portConstraint=eastwest;whiteSpace=wrap;html=1;" vertex="1" parent="9JEVUWr5euu2L4IEynwz-59">
          <mxGeometry y="26" width="140" height="26" as="geometry" />
        </mxCell>
        <mxCell id="9JEVUWr5euu2L4IEynwz-61" value="+ Color" style="text;strokeColor=none;fillColor=none;align=left;verticalAlign=top;spacingLeft=4;spacingRight=4;overflow=hidden;rotatable=0;points=[[0,0.5],[1,0.5]];portConstraint=eastwest;whiteSpace=wrap;html=1;" vertex="1" parent="9JEVUWr5euu2L4IEynwz-59">
          <mxGeometry y="52" width="140" height="26" as="geometry" />
        </mxCell>
        <mxCell id="9JEVUWr5euu2L4IEynwz-62" value="+ Sparkling" style="text;strokeColor=none;fillColor=none;align=left;verticalAlign=top;spacingLeft=4;spacingRight=4;overflow=hidden;rotatable=0;points=[[0,0.5],[1,0.5]];portConstraint=eastwest;whiteSpace=wrap;html=1;" vertex="1" parent="9JEVUWr5euu2L4IEynwz-59">
          <mxGeometry y="78" width="140" height="26" as="geometry" />
        </mxCell>
        <mxCell id="9JEVUWr5euu2L4IEynwz-63" value="+ Sweetness" style="text;strokeColor=none;fillColor=none;align=left;verticalAlign=top;spacingLeft=4;spacingRight=4;overflow=hidden;rotatable=0;points=[[0,0.5],[1,0.5]];portConstraint=eastwest;whiteSpace=wrap;html=1;" vertex="1" parent="9JEVUWr5euu2L4IEynwz-59">
          <mxGeometry y="104" width="140" height="26" as="geometry" />
        </mxCell>
        <mxCell id="9JEVUWr5euu2L4IEynwz-68" value="" style="edgeStyle=entityRelationEdgeStyle;fontSize=12;html=1;endArrow=ERmandOne;startArrow=ERmandOne;rounded=0;" edge="1" parent="WIyWlLk6GJQsqaUBKTNV-1" source="9JEVUWr5euu2L4IEynwz-51" target="9JEVUWr5euu2L4IEynwz-45">
          <mxGeometry width="100" height="100" relative="1" as="geometry">
            <mxPoint x="-550" y="610" as="sourcePoint" />
            <mxPoint x="-450" y="510" as="targetPoint" />
          </mxGeometry>
        </mxCell>
        <mxCell id="9JEVUWr5euu2L4IEynwz-69" value="takes place at" style="edgeLabel;html=1;align=center;verticalAlign=middle;resizable=0;points=[];" vertex="1" connectable="0" parent="9JEVUWr5euu2L4IEynwz-68">
          <mxGeometry x="0.4471" y="1" relative="1" as="geometry">
            <mxPoint x="-13" y="1" as="offset" />
          </mxGeometry>
        </mxCell>
        <mxCell id="9JEVUWr5euu2L4IEynwz-73" value="" style="edgeStyle=entityRelationEdgeStyle;fontSize=12;html=1;endArrow=ERzeroToMany;startArrow=ERmandOne;rounded=0;entryX=0;entryY=0.5;entryDx=0;entryDy=0;" edge="1" parent="WIyWlLk6GJQsqaUBKTNV-1" source="9JEVUWr5euu2L4IEynwz-35" target="9JEVUWr5euu2L4IEynwz-1">
          <mxGeometry width="100" height="100" relative="1" as="geometry">
            <mxPoint x="-60" y="610" as="sourcePoint" />
            <mxPoint x="40" y="510" as="targetPoint" />
          </mxGeometry>
        </mxCell>
        <mxCell id="9JEVUWr5euu2L4IEynwz-110" value="Collected" style="edgeLabel;html=1;align=center;verticalAlign=middle;resizable=0;points=[];" vertex="1" connectable="0" parent="9JEVUWr5euu2L4IEynwz-73">
          <mxGeometry x="0.4427" y="-2" relative="1" as="geometry">
            <mxPoint as="offset" />
          </mxGeometry>
        </mxCell>
        <mxCell id="9JEVUWr5euu2L4IEynwz-74" value="" style="edgeStyle=entityRelationEdgeStyle;fontSize=12;html=1;endArrow=ERzeroToMany;startArrow=ERmandOne;rounded=0;entryX=0;entryY=0.5;entryDx=0;entryDy=0;" edge="1" parent="WIyWlLk6GJQsqaUBKTNV-1" source="9JEVUWr5euu2L4IEynwz-7" target="9JEVUWr5euu2L4IEynwz-5">
          <mxGeometry width="100" height="100" relative="1" as="geometry">
            <mxPoint x="80" y="416" as="sourcePoint" />
            <mxPoint x="220" y="468" as="targetPoint" />
          </mxGeometry>
        </mxCell>
        <mxCell id="9JEVUWr5euu2L4IEynwz-120" value="Produced at" style="edgeLabel;html=1;align=center;verticalAlign=middle;resizable=0;points=[];" vertex="1" connectable="0" parent="9JEVUWr5euu2L4IEynwz-74">
          <mxGeometry x="0.2272" y="1" relative="1" as="geometry">
            <mxPoint y="-1" as="offset" />
          </mxGeometry>
        </mxCell>
        <mxCell id="9JEVUWr5euu2L4IEynwz-121" value="Produce" style="edgeLabel;html=1;align=center;verticalAlign=middle;resizable=0;points=[];" vertex="1" connectable="0" parent="9JEVUWr5euu2L4IEynwz-74">
          <mxGeometry x="-0.591" y="-1" relative="1" as="geometry">
            <mxPoint x="17" y="-11" as="offset" />
          </mxGeometry>
        </mxCell>
        <mxCell id="9JEVUWr5euu2L4IEynwz-75" value="" style="edgeStyle=orthogonalEdgeStyle;fontSize=12;html=1;endArrow=ERmandOne;startArrow=ERmandOne;rounded=0;entryX=0;entryY=0.5;entryDx=0;entryDy=0;exitX=0;exitY=0.5;exitDx=0;exitDy=0;" edge="1" parent="WIyWlLk6GJQsqaUBKTNV-1" source="9JEVUWr5euu2L4IEynwz-13" target="9JEVUWr5euu2L4IEynwz-8">
          <mxGeometry width="100" height="100" relative="1" as="geometry">
            <mxPoint x="-140" y="650" as="sourcePoint" />
            <mxPoint x="-170" y="490" as="targetPoint" />
            <Array as="points">
              <mxPoint x="-150" y="490" />
              <mxPoint x="-115" y="490" />
            </Array>
          </mxGeometry>
        </mxCell>
        <mxCell id="9JEVUWr5euu2L4IEynwz-81" value="Contains" style="edgeLabel;html=1;align=center;verticalAlign=middle;resizable=0;points=[];" vertex="1" connectable="0" parent="9JEVUWr5euu2L4IEynwz-75">
          <mxGeometry x="0.6754" y="3" relative="1" as="geometry">
            <mxPoint y="23" as="offset" />
          </mxGeometry>
        </mxCell>
        <mxCell id="9JEVUWr5euu2L4IEynwz-76" value="" style="edgeStyle=entityRelationEdgeStyle;fontSize=12;html=1;endArrow=ERoneToMany;startArrow=ERzeroToMany;rounded=0;exitX=1;exitY=0.5;exitDx=0;exitDy=0;entryX=0;entryY=0.5;entryDx=0;entryDy=0;" edge="1" parent="WIyWlLk6GJQsqaUBKTNV-1" target="9JEVUWr5euu2L4IEynwz-18">
          <mxGeometry width="100" height="100" relative="1" as="geometry">
            <mxPoint x="-270" y="456.0000000000002" as="sourcePoint" />
            <mxPoint x="-160" y="660" as="targetPoint" />
          </mxGeometry>
        </mxCell>
        <mxCell id="9JEVUWr5euu2L4IEynwz-79" value="Participates" style="edgeLabel;html=1;align=center;verticalAlign=middle;resizable=0;points=[];" vertex="1" connectable="0" parent="9JEVUWr5euu2L4IEynwz-76">
          <mxGeometry x="0.6779" y="-2" relative="1" as="geometry">
            <mxPoint x="1" as="offset" />
          </mxGeometry>
        </mxCell>
        <mxCell id="9JEVUWr5euu2L4IEynwz-77" value="" style="edgeStyle=entityRelationEdgeStyle;fontSize=12;html=1;endArrow=ERoneToMany;startArrow=ERzeroToMany;rounded=0;entryX=0;entryY=0.5;entryDx=0;entryDy=0;" edge="1" parent="WIyWlLk6GJQsqaUBKTNV-1" source="9JEVUWr5euu2L4IEynwz-45" target="9JEVUWr5euu2L4IEynwz-4">
          <mxGeometry width="100" height="100" relative="1" as="geometry">
            <mxPoint x="-210" y="464" as="sourcePoint" />
            <mxPoint x="-85" y="670" as="targetPoint" />
          </mxGeometry>
        </mxCell>
        <mxCell id="9JEVUWr5euu2L4IEynwz-78" value="Includes" style="edgeLabel;html=1;align=center;verticalAlign=middle;resizable=0;points=[];" vertex="1" connectable="0" parent="9JEVUWr5euu2L4IEynwz-77">
          <mxGeometry x="-0.862" relative="1" as="geometry">
            <mxPoint x="10" as="offset" />
          </mxGeometry>
        </mxCell>
        <mxCell id="9JEVUWr5euu2L4IEynwz-80" value="Included in" style="edgeLabel;html=1;align=center;verticalAlign=middle;resizable=0;points=[];" vertex="1" connectable="0" parent="9JEVUWr5euu2L4IEynwz-77">
          <mxGeometry x="0.7814" y="-1" relative="1" as="geometry">
            <mxPoint x="-33" as="offset" />
          </mxGeometry>
        </mxCell>
        <mxCell id="9JEVUWr5euu2L4IEynwz-82" value="" style="edgeStyle=entityRelationEdgeStyle;fontSize=12;html=1;endArrow=ERmandOne;startArrow=ERmandOne;rounded=0;" edge="1" parent="WIyWlLk6GJQsqaUBKTNV-1" target="9JEVUWr5euu2L4IEynwz-59">
          <mxGeometry width="100" height="100" relative="1" as="geometry">
            <mxPoint x="350" y="380" as="sourcePoint" />
            <mxPoint x="430" y="550" as="targetPoint" />
          </mxGeometry>
        </mxCell>
        <mxCell id="9JEVUWr5euu2L4IEynwz-115" value="Contains" style="edgeLabel;html=1;align=center;verticalAlign=middle;resizable=0;points=[];" vertex="1" connectable="0" parent="9JEVUWr5euu2L4IEynwz-82">
          <mxGeometry x="-0.6098" y="-1" relative="1" as="geometry">
            <mxPoint as="offset" />
          </mxGeometry>
        </mxCell>
        <mxCell id="9JEVUWr5euu2L4IEynwz-83" value="" style="edgeStyle=entityRelationEdgeStyle;fontSize=12;html=1;endArrow=ERzeroToMany;startArrow=ERmandOne;rounded=0;exitX=1.005;exitY=0.771;exitDx=0;exitDy=0;exitPerimeter=0;" edge="1" parent="WIyWlLk6GJQsqaUBKTNV-1" source="9JEVUWr5euu2L4IEynwz-20" target="9JEVUWr5euu2L4IEynwz-21">
          <mxGeometry width="100" height="100" relative="1" as="geometry">
            <mxPoint x="150" y="830" as="sourcePoint" />
            <mxPoint x="250" y="730" as="targetPoint" />
          </mxGeometry>
        </mxCell>
        <mxCell id="9JEVUWr5euu2L4IEynwz-109" value="Creates" style="edgeLabel;html=1;align=center;verticalAlign=middle;resizable=0;points=[];" vertex="1" connectable="0" parent="9JEVUWr5euu2L4IEynwz-83">
          <mxGeometry x="-0.5916" y="1" relative="1" as="geometry">
            <mxPoint as="offset" />
          </mxGeometry>
        </mxCell>
        <mxCell id="9JEVUWr5euu2L4IEynwz-117" value="Writed by" style="edgeLabel;html=1;align=center;verticalAlign=middle;resizable=0;points=[];" vertex="1" connectable="0" parent="9JEVUWr5euu2L4IEynwz-83">
          <mxGeometry x="0.4674" y="-1" relative="1" as="geometry">
            <mxPoint as="offset" />
          </mxGeometry>
        </mxCell>
        <mxCell id="9JEVUWr5euu2L4IEynwz-84" value="" style="edgeStyle=elbowEdgeStyle;fontSize=12;html=1;endArrow=ERzeroToMany;startArrow=ERmandOne;rounded=0;exitX=1;exitY=0.5;exitDx=0;exitDy=0;entryX=1;entryY=0.5;entryDx=0;entryDy=0;" edge="1" parent="WIyWlLk6GJQsqaUBKTNV-1" source="9JEVUWr5euu2L4IEynwz-1" target="9JEVUWr5euu2L4IEynwz-24">
          <mxGeometry width="100" height="100" relative="1" as="geometry">
            <mxPoint x="85" y="670" as="sourcePoint" />
            <mxPoint x="190" y="689" as="targetPoint" />
            <Array as="points">
              <mxPoint x="450" y="670" />
            </Array>
          </mxGeometry>
        </mxCell>
        <mxCell id="9JEVUWr5euu2L4IEynwz-102" value="Included" style="edgeLabel;html=1;align=center;verticalAlign=middle;resizable=0;points=[];" vertex="1" connectable="0" parent="9JEVUWr5euu2L4IEynwz-84">
          <mxGeometry x="-0.9151" relative="1" as="geometry">
            <mxPoint x="10" as="offset" />
          </mxGeometry>
        </mxCell>
        <mxCell id="9JEVUWr5euu2L4IEynwz-105" value="Includes" style="edgeLabel;html=1;align=center;verticalAlign=middle;resizable=0;points=[];" vertex="1" connectable="0" parent="9JEVUWr5euu2L4IEynwz-84">
          <mxGeometry x="0.892" y="-1" relative="1" as="geometry">
            <mxPoint as="offset" />
          </mxGeometry>
        </mxCell>
        <mxCell id="9JEVUWr5euu2L4IEynwz-85" value="" style="edgeStyle=entityRelationEdgeStyle;fontSize=12;html=1;endArrow=ERzeroToMany;startArrow=ERmandOne;rounded=0;exitX=1;exitY=0.5;exitDx=0;exitDy=0;" edge="1" parent="WIyWlLk6GJQsqaUBKTNV-1" source="9JEVUWr5euu2L4IEynwz-16" target="9JEVUWr5euu2L4IEynwz-30">
          <mxGeometry width="100" height="100" relative="1" as="geometry">
            <mxPoint x="85" y="670" as="sourcePoint" />
            <mxPoint x="200" y="689" as="targetPoint" />
          </mxGeometry>
        </mxCell>
        <mxCell id="9JEVUWr5euu2L4IEynwz-106" value="Creates" style="edgeLabel;html=1;align=center;verticalAlign=middle;resizable=0;points=[];" vertex="1" connectable="0" parent="9JEVUWr5euu2L4IEynwz-85">
          <mxGeometry x="-0.6555" relative="1" as="geometry">
            <mxPoint x="-9" y="-3" as="offset" />
          </mxGeometry>
        </mxCell>
        <mxCell id="9JEVUWr5euu2L4IEynwz-119" value="Writed by" style="edgeLabel;html=1;align=center;verticalAlign=middle;resizable=0;points=[];" vertex="1" connectable="0" parent="9JEVUWr5euu2L4IEynwz-85">
          <mxGeometry x="0.6885" y="1" relative="1" as="geometry">
            <mxPoint as="offset" />
          </mxGeometry>
        </mxCell>
        <mxCell id="9JEVUWr5euu2L4IEynwz-86" value="" style="edgeStyle=entityRelationEdgeStyle;fontSize=12;html=1;endArrow=ERoneToMany;startArrow=ERzeroToMany;rounded=0;entryX=1;entryY=0.5;entryDx=0;entryDy=0;exitX=1;exitY=0.25;exitDx=0;exitDy=0;" edge="1" parent="WIyWlLk6GJQsqaUBKTNV-1" source="9JEVUWr5euu2L4IEynwz-30" target="9JEVUWr5euu2L4IEynwz-6">
          <mxGeometry width="100" height="100" relative="1" as="geometry">
            <mxPoint x="120" y="870" as="sourcePoint" />
            <mxPoint x="320" y="520" as="targetPoint" />
          </mxGeometry>
        </mxCell>
        <mxCell id="9JEVUWr5euu2L4IEynwz-97" value="Included" style="edgeLabel;html=1;align=center;verticalAlign=middle;resizable=0;points=[];" vertex="1" connectable="0" parent="9JEVUWr5euu2L4IEynwz-86">
          <mxGeometry x="0.7306" y="1" relative="1" as="geometry">
            <mxPoint x="8" y="15" as="offset" />
          </mxGeometry>
        </mxCell>
        <mxCell id="9JEVUWr5euu2L4IEynwz-98" value="Includes" style="edgeLabel;html=1;align=center;verticalAlign=middle;resizable=0;points=[];" vertex="1" connectable="0" parent="9JEVUWr5euu2L4IEynwz-86">
          <mxGeometry x="-0.4827" relative="1" as="geometry">
            <mxPoint as="offset" />
          </mxGeometry>
        </mxCell>
        <mxCell id="9JEVUWr5euu2L4IEynwz-87" value="" style="edgeStyle=entityRelationEdgeStyle;fontSize=12;html=1;endArrow=ERzeroToMany;startArrow=ERmandOne;rounded=0;exitX=1;exitY=0.5;exitDx=0;exitDy=0;" edge="1" parent="WIyWlLk6GJQsqaUBKTNV-1" source="9JEVUWr5euu2L4IEynwz-19" target="9JEVUWr5euu2L4IEynwz-25">
          <mxGeometry width="100" height="100" relative="1" as="geometry">
            <mxPoint x="85" y="670" as="sourcePoint" />
            <mxPoint x="190" y="753" as="targetPoint" />
          </mxGeometry>
        </mxCell>
        <mxCell id="9JEVUWr5euu2L4IEynwz-108" value="Creates" style="edgeLabel;html=1;align=center;verticalAlign=middle;resizable=0;points=[];" vertex="1" connectable="0" parent="9JEVUWr5euu2L4IEynwz-87">
          <mxGeometry x="-0.483" y="1" relative="1" as="geometry">
            <mxPoint as="offset" />
          </mxGeometry>
        </mxCell>
        <mxCell id="9JEVUWr5euu2L4IEynwz-116" value="Writed by" style="edgeLabel;html=1;align=center;verticalAlign=middle;resizable=0;points=[];" vertex="1" connectable="0" parent="9JEVUWr5euu2L4IEynwz-87">
          <mxGeometry x="0.4482" y="-1" relative="1" as="geometry">
            <mxPoint as="offset" />
          </mxGeometry>
        </mxCell>
        <mxCell id="9JEVUWr5euu2L4IEynwz-88" value="" style="edgeStyle=orthogonalEdgeStyle;fontSize=12;html=1;endArrow=ERzeroToMany;startArrow=ERmandOne;rounded=0;entryX=1;entryY=0.5;entryDx=0;entryDy=0;exitX=1;exitY=0.5;exitDx=0;exitDy=0;" edge="1" parent="WIyWlLk6GJQsqaUBKTNV-1" source="9JEVUWr5euu2L4IEynwz-4" target="9JEVUWr5euu2L4IEynwz-27">
          <mxGeometry width="100" height="100" relative="1" as="geometry">
            <mxPoint x="350" y="400" as="sourcePoint" />
            <mxPoint x="190" y="631" as="targetPoint" />
            <Array as="points">
              <mxPoint x="430" y="829" />
            </Array>
          </mxGeometry>
        </mxCell>
        <mxCell id="9JEVUWr5euu2L4IEynwz-101" value="Included" style="edgeLabel;html=1;align=center;verticalAlign=middle;resizable=0;points=[];" vertex="1" connectable="0" parent="9JEVUWr5euu2L4IEynwz-88">
          <mxGeometry x="-0.9013" y="2" relative="1" as="geometry">
            <mxPoint x="12" y="2" as="offset" />
          </mxGeometry>
        </mxCell>
        <mxCell id="9JEVUWr5euu2L4IEynwz-104" value="Includes" style="edgeLabel;html=1;align=center;verticalAlign=middle;resizable=0;points=[];" vertex="1" connectable="0" parent="9JEVUWr5euu2L4IEynwz-88">
          <mxGeometry x="0.8411" y="-1" relative="1" as="geometry">
            <mxPoint as="offset" />
          </mxGeometry>
        </mxCell>
        <mxCell id="9JEVUWr5euu2L4IEynwz-90" value="" style="edgeStyle=entityRelationEdgeStyle;fontSize=12;html=1;endArrow=ERoneToMany;startArrow=ERoneToMany;rounded=0;entryX=1;entryY=0.25;entryDx=0;entryDy=0;" edge="1" parent="WIyWlLk6GJQsqaUBKTNV-1" source="9JEVUWr5euu2L4IEynwz-42" target="9JEVUWr5euu2L4IEynwz-38">
          <mxGeometry width="100" height="100" relative="1" as="geometry">
            <mxPoint x="200" y="120" as="sourcePoint" />
            <mxPoint x="300" y="20" as="targetPoint" />
          </mxGeometry>
        </mxCell>
        <mxCell id="9JEVUWr5euu2L4IEynwz-113" value="Contains" style="edgeLabel;html=1;align=center;verticalAlign=middle;resizable=0;points=[];" vertex="1" connectable="0" parent="9JEVUWr5euu2L4IEynwz-90">
          <mxGeometry x="0.5431" y="1" relative="1" as="geometry">
            <mxPoint x="4" as="offset" />
          </mxGeometry>
        </mxCell>
        <mxCell id="9JEVUWr5euu2L4IEynwz-114" value="Included" style="edgeLabel;html=1;align=center;verticalAlign=middle;resizable=0;points=[];" vertex="1" connectable="0" parent="9JEVUWr5euu2L4IEynwz-90">
          <mxGeometry x="-0.6572" y="-2" relative="1" as="geometry">
            <mxPoint x="9" as="offset" />
          </mxGeometry>
        </mxCell>
        <mxCell id="9JEVUWr5euu2L4IEynwz-91" value="" style="edgeStyle=entityRelationEdgeStyle;fontSize=12;html=1;endArrow=ERoneToMany;startArrow=ERzeroToMany;rounded=0;exitX=1;exitY=0.5;exitDx=0;exitDy=0;entryX=-0.009;entryY=0.141;entryDx=0;entryDy=0;entryPerimeter=0;" edge="1" parent="WIyWlLk6GJQsqaUBKTNV-1" source="9JEVUWr5euu2L4IEynwz-39" target="9JEVUWr5euu2L4IEynwz-0">
          <mxGeometry width="100" height="100" relative="1" as="geometry">
            <mxPoint x="85" y="272.9999999999998" as="sourcePoint" />
            <mxPoint x="210" y="392" as="targetPoint" />
          </mxGeometry>
        </mxCell>
        <mxCell id="9JEVUWr5euu2L4IEynwz-111" value="Contains" style="edgeLabel;html=1;align=center;verticalAlign=middle;resizable=0;points=[];" vertex="1" connectable="0" parent="9JEVUWr5euu2L4IEynwz-91">
          <mxGeometry x="-0.5936" y="-1" relative="1" as="geometry">
            <mxPoint as="offset" />
          </mxGeometry>
        </mxCell>
        <mxCell id="9JEVUWr5euu2L4IEynwz-112" value="Included" style="edgeLabel;html=1;align=center;verticalAlign=middle;resizable=0;points=[];" vertex="1" connectable="0" parent="9JEVUWr5euu2L4IEynwz-91">
          <mxGeometry x="0.4898" y="1" relative="1" as="geometry">
            <mxPoint x="1" as="offset" />
          </mxGeometry>
        </mxCell>
        <mxCell id="9JEVUWr5euu2L4IEynwz-95" value="" style="edgeStyle=entityRelationEdgeStyle;fontSize=12;html=1;endArrow=ERzeroToMany;startArrow=ERmandOne;rounded=0;exitX=1;exitY=0.5;exitDx=0;exitDy=0;entryX=0;entryY=0.5;entryDx=0;entryDy=0;" edge="1" parent="WIyWlLk6GJQsqaUBKTNV-1" source="9JEVUWr5euu2L4IEynwz-17" target="9JEVUWr5euu2L4IEynwz-56">
          <mxGeometry width="100" height="100" relative="1" as="geometry">
            <mxPoint x="20" y="789" as="sourcePoint" />
            <mxPoint x="190" y="599" as="targetPoint" />
          </mxGeometry>
        </mxCell>
        <mxCell id="9JEVUWr5euu2L4IEynwz-107" value="Creates" style="edgeLabel;html=1;align=center;verticalAlign=middle;resizable=0;points=[];" vertex="1" connectable="0" parent="9JEVUWr5euu2L4IEynwz-95">
          <mxGeometry x="-0.5183" relative="1" as="geometry">
            <mxPoint as="offset" />
          </mxGeometry>
        </mxCell>
        <mxCell id="9JEVUWr5euu2L4IEynwz-118" value="Writed by" style="edgeLabel;html=1;align=center;verticalAlign=middle;resizable=0;points=[];" vertex="1" connectable="0" parent="9JEVUWr5euu2L4IEynwz-95">
          <mxGeometry x="0.5992" y="-1" relative="1" as="geometry">
            <mxPoint y="14" as="offset" />
          </mxGeometry>
        </mxCell>
        <mxCell id="9JEVUWr5euu2L4IEynwz-96" value="" style="edgeStyle=orthogonalEdgeStyle;fontSize=12;html=1;endArrow=ERoneToMany;startArrow=ERzeroToMany;rounded=0;exitX=0.999;exitY=0.71;exitDx=0;exitDy=0;entryX=1;entryY=0.5;entryDx=0;entryDy=0;exitPerimeter=0;" edge="1" parent="WIyWlLk6GJQsqaUBKTNV-1" source="9JEVUWr5euu2L4IEynwz-56" target="9JEVUWr5euu2L4IEynwz-5">
          <mxGeometry width="100" height="100" relative="1" as="geometry">
            <mxPoint x="380" y="725" as="sourcePoint" />
            <mxPoint x="600" y="650" as="targetPoint" />
            <Array as="points">
              <mxPoint x="410" y="444" />
            </Array>
          </mxGeometry>
        </mxCell>
        <mxCell id="9JEVUWr5euu2L4IEynwz-100" value="Included" style="edgeLabel;html=1;align=center;verticalAlign=middle;resizable=0;points=[];" vertex="1" connectable="0" parent="9JEVUWr5euu2L4IEynwz-96">
          <mxGeometry x="0.8854" relative="1" as="geometry">
            <mxPoint x="20" as="offset" />
          </mxGeometry>
        </mxCell>
        <mxCell id="9JEVUWr5euu2L4IEynwz-103" value="Includes" style="edgeLabel;html=1;align=center;verticalAlign=middle;resizable=0;points=[];" vertex="1" connectable="0" parent="9JEVUWr5euu2L4IEynwz-96">
          <mxGeometry x="-0.6816" relative="1" as="geometry">
            <mxPoint x="-10" y="-39" as="offset" />
          </mxGeometry>
        </mxCell>
        <mxCell id="9JEVUWr5euu2L4IEynwz-122" value="" style="edgeStyle=orthogonalEdgeStyle;fontSize=12;html=1;endArrow=ERoneToMany;startArrow=ERzeroToMany;rounded=0;exitX=0.575;exitY=1.021;exitDx=0;exitDy=0;exitPerimeter=0;entryX=0;entryY=0.5;entryDx=0;entryDy=0;" edge="1" parent="WIyWlLk6GJQsqaUBKTNV-1" source="9JEVUWr5euu2L4IEynwz-47" target="9JEVUWr5euu2L4IEynwz-19">
          <mxGeometry width="100" height="100" relative="1" as="geometry">
            <mxPoint x="-260" y="466.0000000000002" as="sourcePoint" />
            <mxPoint x="-150" y="828" as="targetPoint" />
            <Array as="points">
              <mxPoint x="-329" y="642" />
              <mxPoint x="-330" y="857" />
            </Array>
          </mxGeometry>
        </mxCell>
        <mxCell id="9JEVUWr5euu2L4IEynwz-124" value="Organises" style="edgeLabel;html=1;align=center;verticalAlign=middle;resizable=0;points=[];" vertex="1" connectable="0" parent="9JEVUWr5euu2L4IEynwz-122">
          <mxGeometry x="0.8031" relative="1" as="geometry">
            <mxPoint as="offset" />
          </mxGeometry>
        </mxCell>
        <mxCell id="9JEVUWr5euu2L4IEynwz-125" value="Organised by" style="edgeLabel;html=1;align=center;verticalAlign=middle;resizable=0;points=[];" vertex="1" connectable="0" parent="9JEVUWr5euu2L4IEynwz-122">
          <mxGeometry x="-0.8802" y="-2" relative="1" as="geometry">
            <mxPoint as="offset" />
          </mxGeometry>
        </mxCell>
        <mxCell id="9JEVUWr5euu2L4IEynwz-128" value="" style="edgeStyle=orthogonalEdgeStyle;fontSize=12;html=1;endArrow=ERoneToMany;startArrow=ERzeroToMany;rounded=0;exitX=0;exitY=0.25;exitDx=0;exitDy=0;entryX=0;entryY=0.5;entryDx=0;entryDy=0;" edge="1" parent="WIyWlLk6GJQsqaUBKTNV-1" source="9JEVUWr5euu2L4IEynwz-7" target="9JEVUWr5euu2L4IEynwz-16">
          <mxGeometry width="100" height="100" relative="1" as="geometry">
            <mxPoint x="-319" y="467" as="sourcePoint" />
            <mxPoint x="-150" y="867" as="targetPoint" />
            <Array as="points">
              <mxPoint x="-190" y="470" />
              <mxPoint x="-190" y="779" />
            </Array>
          </mxGeometry>
        </mxCell>
        <mxCell id="9JEVUWr5euu2L4IEynwz-129" value="Owns" style="edgeLabel;html=1;align=center;verticalAlign=middle;resizable=0;points=[];" vertex="1" connectable="0" parent="9JEVUWr5euu2L4IEynwz-128">
          <mxGeometry x="0.8031" relative="1" as="geometry">
            <mxPoint x="10" y="-38" as="offset" />
          </mxGeometry>
        </mxCell>
        <mxCell id="9JEVUWr5euu2L4IEynwz-130" value="Belonged" style="edgeLabel;html=1;align=center;verticalAlign=middle;resizable=0;points=[];" vertex="1" connectable="0" parent="9JEVUWr5euu2L4IEynwz-128">
          <mxGeometry x="-0.8802" y="-2" relative="1" as="geometry">
            <mxPoint x="-50" y="52" as="offset" />
          </mxGeometry>
        </mxCell>
        <mxCell id="9JEVUWr5euu2L4IEynwz-132" value="Owner of winary must be placed in winary info" style="text;html=1;strokeColor=none;fillColor=none;align=center;verticalAlign=middle;whiteSpace=wrap;rounded=0;" vertex="1" parent="WIyWlLk6GJQsqaUBKTNV-1">
          <mxGeometry x="-170" y="661" width="75" height="50" as="geometry" />
        </mxCell>
      </root>
    </mxGraphModel>
  </diagram>
</mxfile>
